<svg xmlns="http://www.w3.org/2000/svg" width="48" height="48" viewBox="0 0 48 48">
<!-- Hand-tuned 48 px layer of icon.ico: full design on whole pixels. -->
  <defs><linearGradient id="bg" x1="0" y1="0" x2="1" y2="1"><stop offset="0" stop-color="#d9693f"/><stop offset="1" stop-color="#b2462a"/></linearGradient></defs>
  <rect x="2" y="2" width="44" height="44" rx="10" fill="url(#bg)"/>
  <circle cx="24" cy="24" r="15" fill="#f2b552"/>
  <circle cx="24" cy="24" r="12.5" fill="#fff1d2"/>
  <g stroke="#e2a24a" stroke-width="1.2" stroke-linecap="round"><line x1="24" y1="17" x2="24" y2="13"/><line x1="28.95" y1="19.05" x2="31.78" y2="16.22"/><line x1="31" y1="24" x2="35" y2="24"/><line x1="28.95" y1="28.95" x2="31.78" y2="31.78"/><line x1="24" y1="31" x2="24" y2="35"/><line x1="19.05" y1="28.95" x2="16.22" y2="31.78"/><line x1="17" y1="24" x2="13" y2="24"/><line x1="19.05" y1="19.05" x2="16.22" y2="16.22"/></g>
  <g fill="#b23a22"><circle cx="31.88" cy="27.18" r="1.5"/><circle cx="20.82" cy="31.88" r="1.5"/><circle cx="16.12" cy="20.82" r="1.5"/></g>
  <polyline points="19.96,23.03 24,25 28.82,19.25" fill="none" stroke="#7e2a16" stroke-width="2.6" stroke-linecap="round" stroke-linejoin="round"/>
  <circle cx="24" cy="25" r="0.9" fill="#7e2a16"/>
</svg>
